<?xml version="1.0" encoding="UTF-8"?>
<!DOCTYPE svg PUBLIC "-//W3C//DTD SVG 1.1//EN" "http://www.w3.org/Graphics/SVG/1.1/DTD/svg11.dtd">
<svg xmlns="http://www.w3.org/2000/svg" version="1.1" width="3508px" height="2480px" style="shape-rendering:geometricPrecision; text-rendering:geometricPrecision; image-rendering:optimizeQuality; fill-rule:evenodd; clip-rule:evenodd" xmlns:xlink="http://www.w3.org/1999/xlink">
<g><path style="opacity:0.958" fill="#005faf" d="M 703.5,770.5 C 806.069,769.484 905.735,785.984 1002.5,820C 1037.52,832.506 1071.85,846.673 1105.5,862.5C 1182.52,1020.59 1210.02,1186.93 1188,1361.5C 1174.5,1453.33 1147.33,1540.83 1106.5,1624C 927.601,1707.11 741.601,1728.45 548.5,1688C 478.922,1671.47 411.922,1647.81 347.5,1617C 253.75,1420.67 234.25,1217.17 289,1006.5C 303.162,954.19 322.329,903.857 346.5,855.5C 459.592,802.084 578.592,773.751 703.5,770.5 Z M 695.5,791.5 C 803.574,789.346 908.241,807.179 1009.5,845C 1036.69,854.898 1063.36,866.065 1089.5,878.5C 1202.83,1119.96 1204,1361.96 1093,1604.5C 1091.75,1607.38 1089.58,1609.21 1086.5,1610C 844.101,1716.24 603.101,1713.24 363.5,1601C 278.194,1419.91 258.027,1231.74 303,1036.5C 317.004,979.317 336.837,924.317 362.5,871.5C 468.166,822.333 579.166,795.666 695.5,791.5 Z M 938.5,1548.5 C 942.932,1556.53 947.265,1564.69 951.5,1573C 948.709,1574.62 945.709,1575.79 942.5,1576.5C 941.808,1575.97 941.308,1575.31 941,1574.5C 939.968,1565.85 939.135,1557.18 938.5,1548.5 Z M 564.5,1557.5 C 570.001,1557.63 575.168,1558.97 580,1561.5C 582.848,1576.82 577.015,1581.82 562.5,1576.5C 562.167,1575.67 561.833,1574.83 561.5,1574C 562.696,1568.52 563.696,1563.02 564.5,1557.5 Z M 809.5,1568.5 C 818.572,1568.09 822.072,1572.42 820,1581.5C 817.261,1586.26 813.094,1588.26 807.5,1587.5C 806.553,1581.53 805.886,1575.53 805.5,1569.5C 807.099,1569.77 808.432,1569.43 809.5,1568.5 Z M 706.5,1574.5 C 712.233,1573.89 717.4,1575.22 722,1578.5C 725.138,1592.53 719.638,1598.2 705.5,1595.5C 705.894,1588.5 706.227,1581.5 706.5,1574.5 Z M 811.5,1600.5 C 821.671,1598.5 826.338,1602.67 825.5,1613C 825.974,1616.29 824.974,1618.96 822.5,1621C 819.313,1621.89 816.147,1622.72 813,1623.5C 811.741,1617.02 810.574,1610.52 809.5,1604C 809.862,1602.57 810.528,1601.4 811.5,1600.5 Z"/></g>
<g><path style="opacity:0.995" fill="#005faf" d="M 2578.5,844.5 C 2632.31,872.237 2685.64,900.737 2738.5,930C 2700.72,999.725 2662.55,1069.22 2624,1138.5C 2623.28,1139.45 2622.45,1139.62 2621.5,1139C 2549.95,1081.37 2469.61,1064.7 2380.5,1089C 2308.06,1112.44 2260.9,1160.6 2239,1233.5C 2223.73,1289.83 2234.73,1340.16 2272,1384.5C 2299.1,1411.14 2331.6,1427.3 2369.5,1433C 2398.24,1438 2426.91,1437.66 2455.5,1432C 2502.5,1420.91 2546,1402.07 2586,1375.5C 2549.05,1457.08 2511.21,1538.41 2472.5,1619.5C 2444.15,1626.8 2415.49,1632.64 2386.5,1637C 2324.87,1643.45 2264.2,1638.45 2204.5,1622C 2086.38,1584.21 2017.22,1504.04 1997,1381.5C 1987.07,1299.06 2000.07,1220.39 2036,1145.5C 2103.11,1008.4 2209.94,918.231 2356.5,875C 2400.89,863.229 2446.06,857.063 2492,856.5C 2514.82,857.33 2536.82,861.997 2558,870.5C 2565.4,862.265 2572.24,853.598 2578.5,844.5 Z"/></g>
<g><path style="opacity:0.996" fill="#005faf" d="M 1518.5,851.5 C 1631.17,851.333 1743.83,851.5 1856.5,852C 1889.55,853.429 1920.88,861.429 1950.5,876C 2002.94,906.016 2029.28,951.516 2029.5,1012.5C 2027.58,1057.11 2012.74,1096.78 1985,1131.5C 1955.77,1167.4 1920.61,1195.9 1879.5,1217C 1925.05,1234.56 1952.55,1267.4 1962,1315.5C 1977.77,1398.5 1955.94,1469.67 1896.5,1529C 1841.64,1579.91 1776.64,1608.25 1701.5,1614C 1574.5,1614.5 1447.5,1614.67 1320.5,1614.5C 1366.19,1435.75 1412.19,1257.09 1458.5,1078.5C 1439.85,1077.63 1421.18,1077.29 1402.5,1077.5C 1440.72,1001.95 1479.38,926.613 1518.5,851.5 Z M 1682.5,1052.5 C 1711.17,1052.96 1739.83,1053.46 1768.5,1054C 1790.48,1055.81 1802.15,1067.65 1803.5,1089.5C 1799.9,1131.94 1776.9,1155.44 1734.5,1160C 1708.83,1160.67 1683.17,1160.67 1657.5,1160C 1665.9,1124.18 1674.23,1088.34 1682.5,1052.5 Z M 1621.5,1296.5 C 1653.17,1296.33 1684.84,1296.5 1716.5,1297C 1741.73,1301.67 1756.89,1316.51 1762,1341.5C 1763.01,1369.14 1751.84,1390.31 1728.5,1405C 1714.31,1413.4 1698.98,1418.4 1682.5,1420C 1651.49,1420.83 1620.49,1420.67 1589.5,1419.5C 1600.64,1378.62 1611.3,1337.62 1621.5,1296.5 Z"/></g>
<g><path style="opacity:0.996" fill="#005faf" d="M 2850.5,851.5 C 2972.17,851.5 3093.83,851.5 3215.5,851.5C 3226.64,1105.82 3237.64,1360.16 3248.5,1614.5C 3166.83,1614.5 3085.17,1614.5 3003.5,1614.5C 3003.5,1571.17 3003.5,1527.83 3003.5,1484.5C 2948.5,1484.33 2893.5,1484.5 2838.5,1485C 2820.41,1527.78 2802.41,1570.61 2784.5,1613.5C 2695.84,1614.67 2607.17,1614.83 2518.5,1614C 2610.5,1433 2702.5,1252 2794.5,1071C 2773.83,1070.83 2753.16,1070.33 2732.5,1069.5C 2772.37,997.099 2811.7,924.432 2850.5,851.5 Z M 3001.5,1088.5 C 3003.01,1160.9 3004.35,1233.4 3005.5,1306C 2973.5,1306.67 2941.5,1306.67 2909.5,1306C 2940.85,1233.78 2971.52,1161.28 3001.5,1088.5 Z"/></g>
<g><path style="opacity:0.992" fill="#005faf" d="M 716.5,855.5 C 757.019,854.839 793.019,867.005 824.5,892C 861.498,927.65 876.664,971.15 870,1022.5C 864.911,1052.34 852.577,1078.67 833,1101.5C 821.397,1115.1 809.064,1128.1 796,1140.5C 762.459,1179.61 742.459,1224.94 736,1276.5C 734.67,1286.8 733.67,1297.13 733,1307.5C 731.18,1365.83 731.013,1424.16 732.5,1482.5C 726.167,1482.5 719.833,1482.5 713.5,1482.5C 713.329,1426.16 712.495,1369.82 711,1313.5C 709.615,1259.27 694.615,1209.27 666,1163.5C 660.382,1155.55 654.382,1147.88 648,1140.5C 625.668,1120.42 606.668,1097.76 591,1072.5C 569.379,1030.73 566.713,987.731 583,943.5C 603.032,898.481 637.199,870.648 685.5,860C 695.897,857.912 706.23,856.412 716.5,855.5 Z"/></g>
<g><path style="opacity:0.992" fill="#005faf" d="M 525.5,1086.5 C 548.425,1086.86 569.425,1093.36 588.5,1106C 626.85,1132.69 655.35,1167.53 674,1210.5C 687.003,1239.84 695.003,1270.51 698,1302.5C 699.444,1362.48 699.944,1422.48 699.5,1482.5C 694.833,1482.5 690.167,1482.5 685.5,1482.5C 680.018,1407.52 642.018,1357.02 571.5,1331C 540.378,1319.85 508.711,1310.52 476.5,1303C 435.987,1290.81 413.154,1263.64 408,1221.5C 404.981,1180.73 417.814,1145.89 446.5,1117C 469.521,1098.27 495.854,1088.1 525.5,1086.5 Z"/></g>
<g><path style="opacity:0.992" fill="#005faf" d="M 907.5,1086.5 C 977.264,1086.79 1019.76,1120.79 1035,1188.5C 1041.24,1225.75 1031.07,1257.59 1004.5,1284C 993.451,1292.69 981.117,1299.03 967.5,1303C 935.289,1310.52 903.622,1319.85 872.5,1331C 801.985,1356.83 764.651,1407.33 760.5,1482.5C 755.167,1482.5 749.833,1482.5 744.5,1482.5C 744.056,1422.48 744.556,1362.48 746,1302.5C 752.789,1233.43 780.623,1174.6 829.5,1126C 847.068,1109.46 867.402,1097.46 890.5,1090C 896.265,1088.61 901.931,1087.45 907.5,1086.5 Z"/></g>
<g><path style="opacity:0.986" fill="#005faf" d="M 419.5,1286.5 C 427.587,1298.73 438.587,1307.57 452.5,1313C 477.066,1320.31 501.733,1327.31 526.5,1334C 558.27,1342.39 587.937,1355.39 615.5,1373C 650.948,1400.73 669.281,1437.23 670.5,1482.5C 665.456,1482.83 660.456,1482.49 655.5,1481.5C 648.149,1460.65 634.149,1446.15 613.5,1438C 601.288,1433.02 588.622,1431.02 575.5,1432C 547.821,1438.22 519.821,1442.05 491.5,1443.5C 447.422,1440.38 417.922,1418.05 403,1376.5C 397.567,1348.06 400.901,1320.72 413,1294.5C 415.001,1291.67 417.167,1289 419.5,1286.5 Z"/></g>
<g><path style="opacity:0.986" fill="#005faf" d="M 1023.5,1286.5 C 1031.49,1294.13 1036.65,1303.46 1039,1314.5C 1053.48,1363.42 1039.98,1402.25 998.5,1431C 984.311,1439.34 968.978,1443.51 952.5,1443.5C 924.179,1442.05 896.179,1438.22 868.5,1432C 840.264,1430.71 816.764,1440.54 798,1461.5C 793.496,1467.51 790.329,1474.18 788.5,1481.5C 783.544,1482.49 778.544,1482.83 773.5,1482.5C 774.551,1439.23 791.551,1403.73 824.5,1376C 841.888,1363.14 860.888,1353.14 881.5,1346C 893.363,1341.6 905.363,1337.6 917.5,1334C 942.267,1327.31 966.934,1320.31 991.5,1313C 1005.42,1307.89 1016.09,1299.06 1023.5,1286.5 Z"/></g>
<g><path style="opacity:0.93" fill="#005faf" d="M 499.5,1603.5 C 486.462,1609.4 475.962,1606.4 468,1594.5C 467.209,1574.31 471.209,1554.97 480,1536.5C 483.914,1530.26 489.581,1526.93 497,1526.5C 504.623,1527.2 511.79,1529.36 518.5,1533C 521.543,1535.59 523.71,1538.76 525,1542.5C 525.697,1548.54 525.53,1554.54 524.5,1560.5C 519.462,1559.66 514.462,1558.66 509.5,1557.5C 509.83,1554.84 510.163,1552.18 510.5,1549.5C 508.606,1541.22 503.606,1538.72 495.5,1542C 493.623,1544.25 492.123,1546.75 491,1549.5C 488.489,1559.21 485.822,1568.88 483,1578.5C 482.133,1582.96 482.466,1587.29 484,1591.5C 489.714,1595.97 494.714,1595.3 499,1589.5C 500.928,1586.15 502.428,1582.65 503.5,1579C 500.828,1578.17 498.161,1577.33 495.5,1576.5C 494.758,1572.19 495.425,1568.02 497.5,1564C 504.959,1565.43 512.292,1567.59 519.5,1570.5C 519.833,1571.17 520.167,1571.83 520.5,1572.5C 517.294,1585.66 513.627,1598.66 509.5,1611.5C 506.167,1610.5 502.833,1609.5 499.5,1608.5C 498.948,1607 498.948,1605.33 499.5,1603.5 Z"/></g>
<g><path style="opacity:0.934" fill="#005faf" d="M 941.5,1529.5 C 942.675,1529.28 943.675,1529.61 944.5,1530.5C 957.464,1553.44 970.131,1576.44 982.5,1599.5C 977.406,1600.42 972.406,1601.75 967.5,1603.5C 964.49,1597.47 960.99,1591.8 957,1586.5C 951.981,1587.67 947.148,1589.34 942.5,1591.5C 943.965,1597.8 944.299,1604.14 943.5,1610.5C 938.793,1612.89 933.96,1613.89 929,1613.5C 927.25,1587.5 925.917,1561.5 925,1535.5C 930.617,1533.56 936.117,1531.56 941.5,1529.5 Z M 938.5,1548.5 C 939.135,1557.18 939.968,1565.85 941,1574.5C 941.308,1575.31 941.808,1575.97 942.5,1576.5C 945.709,1575.79 948.709,1574.62 951.5,1573C 947.265,1564.69 942.932,1556.53 938.5,1548.5 Z"/></g>
<g><path style="opacity:0.94" fill="#005faf" d="M 551.5,1541.5 C 564.879,1543.67 577.879,1547.17 590.5,1552C 593.467,1554.1 595.3,1556.93 596,1560.5C 596.961,1567.34 596.295,1574 594,1580.5C 591.778,1584.39 588.612,1587.22 584.5,1589C 587.92,1590.72 589.586,1593.55 589.5,1597.5C 586.775,1608.06 585.608,1618.73 586,1629.5C 580.649,1627.62 575.149,1626.29 569.5,1625.5C 570.872,1615.49 572.039,1605.49 573,1595.5C 572.5,1593.67 571.333,1592.5 569.5,1592C 565.622,1590.53 561.622,1589.7 557.5,1589.5C 555.929,1600.36 553.595,1611.03 550.5,1621.5C 545.627,1619.86 540.627,1618.86 535.5,1618.5C 540.321,1592.73 545.654,1567.06 551.5,1541.5 Z M 564.5,1557.5 C 563.696,1563.02 562.696,1568.52 561.5,1574C 561.833,1574.83 562.167,1575.67 562.5,1576.5C 577.015,1581.82 582.848,1576.82 580,1561.5C 575.168,1558.97 570.001,1557.63 564.5,1557.5 Z"/></g>
<g><path style="opacity:0.933" fill="#005faf" d="M 875.5,1544.5 C 892.197,1542.58 901.03,1549.91 902,1566.5C 897.335,1568.2 892.501,1569.2 887.5,1569.5C 887.201,1564.73 885.201,1560.9 881.5,1558C 877.114,1556.94 873.947,1558.44 872,1562.5C 872.516,1577.09 874.85,1591.42 879,1605.5C 882.315,1612.52 886.982,1613.86 893,1609.5C 894.736,1604.3 894.57,1599.13 892.5,1594C 897.464,1592.64 902.464,1591.47 907.5,1590.5C 913.722,1614.77 904.389,1626.27 879.5,1625C 872.21,1623.71 867.377,1619.55 865,1612.5C 858.834,1595.34 856.167,1577.68 857,1559.5C 857.848,1556.3 859.348,1553.47 861.5,1551C 865.877,1547.97 870.544,1545.81 875.5,1544.5 Z"/></g>
<g><path style="opacity:0.941" fill="#005faf" d="M 620.5,1554.5 C 625.833,1554.83 631.167,1555.17 636.5,1555.5C 634.25,1574.5 631.916,1593.5 629.5,1612.5C 629.037,1617.33 631.037,1620.5 635.5,1622C 642.244,1623.71 646.41,1621.21 648,1614.5C 650.42,1596.14 652.92,1577.8 655.5,1559.5C 656.5,1559.17 657.5,1558.83 658.5,1558.5C 662.486,1559.11 666.486,1559.61 670.5,1560C 671.059,1560.72 671.392,1561.56 671.5,1562.5C 669.088,1579.46 666.921,1596.46 665,1613.5C 663.906,1627.93 656.24,1635.59 642,1636.5C 619.793,1636.97 610.46,1626.3 614,1604.5C 616.005,1587.79 618.172,1571.12 620.5,1554.5 Z"/></g>
<g><path style="opacity:0.941" fill="#005faf" d="M 811.5,1556.5 C 830.256,1555.09 838.089,1563.76 835,1582.5C 834.3,1586.07 832.467,1588.9 829.5,1591C 837.434,1594 841.6,1599.83 842,1608.5C 843.15,1615.19 842.15,1621.52 839,1627.5C 837.269,1629.62 835.102,1631.12 832.5,1632C 821.254,1634.34 809.921,1636.18 798.5,1637.5C 794.757,1611.89 791.424,1586.22 788.5,1560.5C 796.355,1559.52 804.022,1558.19 811.5,1556.5 Z M 809.5,1568.5 C 808.432,1569.43 807.099,1569.77 805.5,1569.5C 805.886,1575.53 806.553,1581.53 807.5,1587.5C 813.094,1588.26 817.261,1586.26 820,1581.5C 822.072,1572.42 818.572,1568.09 809.5,1568.5 Z M 811.5,1600.5 C 810.528,1601.4 809.862,1602.57 809.5,1604C 810.574,1610.52 811.741,1617.02 813,1623.5C 816.147,1622.72 819.313,1621.89 822.5,1621C 824.974,1618.96 825.974,1616.29 825.5,1613C 826.338,1602.67 821.671,1598.5 811.5,1600.5 Z"/></g>
<g><path style="opacity:0.943" fill="#005faf" d="M 691.5,1562.5 C 703.192,1562.4 714.858,1562.9 726.5,1564C 731.598,1565.43 735.098,1568.6 737,1573.5C 742.656,1600.35 731.823,1612.01 704.5,1608.5C 704.049,1618.83 703.716,1629.16 703.5,1639.5C 698.12,1639.68 692.787,1639.34 687.5,1638.5C 688.638,1613.16 689.971,1587.82 691.5,1562.5 Z M 706.5,1574.5 C 706.227,1581.5 705.894,1588.5 705.5,1595.5C 719.638,1598.2 725.138,1592.53 722,1578.5C 717.4,1575.22 712.233,1573.89 706.5,1574.5 Z"/></g>
</svg>
