<?xml version="1.0" encoding="UTF-8"?>
<!DOCTYPE svg PUBLIC "-//W3C//DTD SVG 1.1//EN" "http://www.w3.org/Graphics/SVG/1.1/DTD/svg11.dtd">
<svg xmlns="http://www.w3.org/2000/svg" version="1.1" width="512px" height="512px" style="shape-rendering:geometricPrecision; text-rendering:geometricPrecision; image-rendering:optimizeQuality; fill-rule:evenodd; clip-rule:evenodd" xmlns:xlink="http://www.w3.org/1999/xlink">
<g><path style="opacity:0.959" fill="#000000" d="M 235.5,-0.5 C 249.833,-0.5 264.167,-0.5 278.5,-0.5C 367.286,10.1671 433.786,54.1671 478,131.5C 515.786,207.522 517.12,284.189 482,361.5C 437.968,444.968 368.802,491.801 274.5,502C 238.927,504.387 204.26,499.887 170.5,488.5C 127.62,495.756 84.9533,503.423 42.5,511.5C 38.1667,511.5 33.8333,511.5 29.5,511.5C 22.5396,508.006 19.7062,502.339 21,494.5C 33.0359,465.597 45.2026,436.763 57.5,408C -0.0120724,328.744 -11.1787,243.244 24,151.5C 57.9613,77.5454 114.128,29.3787 192.5,7C 206.826,3.61342 221.159,1.11342 235.5,-0.5 Z M 240.5,27.5 C 332.898,25.434 403.065,63.434 451,141.5C 488.478,213.327 488.812,285.327 452,357.5C 408.721,431.585 343.888,470.585 257.5,474.5C 243.759,474.185 230.092,473.019 216.5,471C 201.683,467.671 187.016,463.837 172.5,459.5C 134.547,465.725 96.7136,472.392 59,479.5C 68.2451,456.462 77.9118,433.462 88,410.5C 88.8673,406.044 88.5339,401.711 87,397.5C 38.5008,338.494 22.5008,271.494 39,196.5C 59.7793,122.72 105.613,71.2198 176.5,42C 197.351,34.4001 218.684,29.5667 240.5,27.5 Z"/></g>
<g><path style="opacity:0.965" fill="#000000" d="M 165.5,200.5 C 193.502,200.333 221.502,200.5 249.5,201C 257.305,204.781 260.138,210.947 258,219.5C 256.402,224.099 253.235,226.932 248.5,228C 221.167,228.667 193.833,228.667 166.5,228C 156.47,223.245 153.97,215.745 159,205.5C 160.965,203.45 163.132,201.783 165.5,200.5 Z"/></g>
<g><path style="opacity:0.943" fill="#000000" d="M 168.5,268.5 C 226.501,268.333 284.501,268.5 342.5,269C 353.605,272.272 357.105,279.439 353,290.5C 350.635,293.869 347.468,296.036 343.5,297C 284.833,297.667 226.167,297.667 167.5,297C 156.706,292.57 153.872,285.07 159,274.5C 161.551,271.319 164.718,269.319 168.5,268.5 Z"/></g>
</svg>
